<?xml version="1.0" encoding="utf-8"?>
<!-- Generator: Adobe Illustrator 16.0.0, SVG Export Plug-In . SVG Version: 6.00 Build 0)  -->
<!DOCTYPE svg PUBLIC "-//W3C//DTD SVG 1.1//EN" "http://www.w3.org/Graphics/SVG/1.1/DTD/svg11.dtd">
<svg version="1.1" id="Layer_1" xmlns="http://www.w3.org/2000/svg" xmlns:xlink="http://www.w3.org/1999/xlink" x="0px" y="0px"
 viewBox="0 0 68 22" enable-background="new 0 0 68 22" xml:space="preserve" preserveAspectRatio="xMinYMid meet">
<path fill="#E30D13" d="M15.698,19.5c-1.178,1.182-2.994,2.408-7.456,2.408c-1.031,0-3.188-0.193-5.392-0.492
	c-0.099-0.047-0.54-0.094-0.885-0.094c-0.146,0-0.781,0.094-0.88,0.094c-0.293,0-0.492-0.146-0.492-0.734
	c0-1.328,0.052-2.604,0-3.195C0.546,16.457,0.3,15.617,0.3,14.783c0-0.195,0-0.488,0.492-0.588l1.225-0.146
	c0.246,0,0.44,0.094,0.733,0.98c0.445,1.328,1.764,4.523,5.884,4.523c1.178,0,2.01-0.346,2.502-1.033
	c0.293-0.441,0.44-0.982,0.44-1.521c0-1.674-0.785-2.068-5.445-4.23c-2.843-1.275-5.539-2.555-5.539-5.992
	c0-2.754,1.864-6.732,8.874-6.732c0.393,0,1.571,0.095,2.649,0.195c1.079,0.099,1.963,0.194,2.204,0.194
	c0.152,0,0.346-0.047,0.54-0.095c0.151,0,0.345-0.052,0.393-0.052c0.345,0,0.393,0.1,0.54,1.181
	c0.199,1.081,0.539,4.129,0.539,4.769c0,0.341,0,0.588-1.225,0.735c-0.786,0.048-0.88-0.047-1.126-0.493
	c-1.372-2.75-2.45-4.078-5-4.078c-2.602,0-2.848,1.821-2.848,2.309c0,1.622,1.325,2.409,5.005,3.883
	c3.089,1.18,6.372,2.655,6.372,6.486C17.51,17.438,16.332,18.865,15.698,19.5z"/>
<path fill="#E30D13" d="M42.74,17.191v1.521c-0.047,0.74-0.047,0.787-1.717,1.527c-1.57,0.734-4.266,1.717-6.031,1.717
	c-2.303,0-2.889-1.623-3.088-2.062c-1.373,0.641-4.215,2.014-7.648,2.014c-3.189,0-4.854-1.816-4.854-5.158
	c0-2.949,0.932-3.93,2.989-4.621c3.436-1.129,6.717-1.475,9.514-1.816c0-5.063,0-6.339-3.236-6.339c-0.293,0-2.748,0-2.748,0.882
	c0,0.199,0.15,0.839,0.15,0.986c0,0.982-0.59,1.128-1.617,1.375c-1.471,0.393-3.09,0.54-3.334,0.54
	c-0.885,0-0.933-0.787-0.933-0.886c0-2.015,5.048-6.827,11.079-6.827c1.078,0,3.434,0.195,5.004,1.422
	c1.324,0.981,1.812,2.408,1.812,4.57c0,1.375-0.246,7.419-0.246,8.647c0,2.508,0,3.195,1.424,3.195c1.078,0,2.303-0.393,3.236-0.834
	L42.74,17.191z M31.805,13.9c0-0.887,0-1.621-1.078-1.621c-0.539,0-2.258,0.146-4.068,1.082c-0.885,0.439-1.078,0.881-1.078,1.814
	c0,2.262,0.586,3.197,2.648,3.197c1.174,0,2.498-0.348,3.529-0.787L31.805,13.9z"/>
<path fill="#1F2A4F" d="M51.951,18.689c0,1.713-1.381,3.096-3.09,3.096c-1.707,0-3.088-1.383-3.088-3.096
	c0-1.707,1.381-3.096,3.088-3.096C50.57,15.594,51.951,16.982,51.951,18.689z"/>
<g>
	<path fill="#1F2A4F" d="M59.68,16.453c0.256,0.43,0.256,1.1,0.256,1.701c0,1.113,0,1.848,0.025,2.266
		c0.031,0.512,0.158,0.527,0.732,0.578c0.189,0.014,0.197,0.066,0.197,0.262c0,0.186-0.008,0.26-0.197,0.26
		c-0.488,0-0.971-0.023-1.457-0.023c-0.455,0-0.924,0.023-1.383,0.023c-0.135,0-0.135-0.074-0.135-0.232
		c0-0.236,0.008-0.236,0.174-0.289c0.336-0.094,0.42-0.184,0.477-0.602c0.039-0.316,0.039-1.455,0.039-1.873
		c0-0.602,0-1.545-0.984-1.545c-0.336,0-0.842,0.127-1.041,0.232c-0.066,0.027-0.104,0.053-0.104,0.342c0,0.482,0,2.422,0.023,2.807
		c0.023,0.35,0.039,0.652,0.652,0.652c0.18,0,0.199,0.025,0.199,0.262c0,0.193,0,0.246-0.162,0.246
		c-0.453,0-0.898-0.023-1.355-0.023c-0.758,0-1.25,0.023-1.514,0.023c-0.119,0-0.133-0.053-0.133-0.232
		c0-0.236,0.014-0.275,0.26-0.316c0.359-0.053,0.488-0.232,0.525-0.627c0.031-0.264,0.031-0.891,0.031-1.848
		c0-1.115-0.045-1.398-0.5-1.428c-0.279-0.014-0.316-0.014-0.316-0.26c0-0.201,0.037-0.211,0.307-0.328
		c0.441-0.186,1.234-0.527,1.6-0.645c0.119-0.037,0.197-0.053,0.303-0.053c0.057,0,0.166,0,0.166,0.133
		c0,0.09-0.062,0.707-0.072,0.84c0.35-0.238,1.41-0.93,2.229-0.93C58.721,15.826,59.35,15.863,59.68,16.453z"/>
	<path fill="#1F2A4F" d="M64.396,15.836c2.146,0,2.744,1.691,2.744,2.801c0,1.863-1.311,3.031-3.156,3.031
		c-0.453,0-1.105-0.105-1.713-0.578c-0.443-0.328-0.969-0.945-0.969-2.371C61.303,17.291,62.281,15.836,64.396,15.836z
		 M64.381,20.947c1.076,0,1.076-1.404,1.076-1.703c0-1.09-0.352-2.688-1.434-2.688c-1.041,0-1.041,1.455-1.041,1.664
		C62.982,19.008,63.18,20.947,64.381,20.947z"/>
</g>
</svg>
